<svg xmlns="http://www.w3.org/2000/svg" viewBox="0 0 24 24" fill="currentColor">
    <path d="M13.438 19c.192 1.187.564 2.619 2.563 2.619V23h-8v-1.381c1.941 0 2.369-1.432 2.571-2.619h2.866zM19 1c0 9.803-5.094 13.053-5.591 17h-2.805C10.105 14.053 5 10.803 5 1h14zm-2.079 2H7.079c.368 4.505 1.957 7.229 3.379 9.666.579.994 1.14 1.955 1.548 2.953.407-.997.966-1.957 1.543-2.95C14.968 10.23 16.553 7.506 16.921 3zM4.077 3c.036.482.08.955.138 1.404H1.527c.427 2.001 1.549 4.73 4.464 6.251.286.638.585 1.231.882 1.783C2.808 11.091.372 7.105 0 3h4.077zM24 2.999V3c-.372 4.105-2.808 8.091-6.873 9.438.297-.552.596-1.145.882-1.783 2.915-1.521 4.037-4.25 4.464-6.251h-2.688c.059-.45.103-.922.139-1.405H24z"/>
    <path d="M15.353 6.59v1H8.649v-1h6.704z"/>
    <path d="M11.501 3.739h1v6.703h-1V3.739z"/>
</svg>
